<svg width="512" height="287" viewBox="0 0 512 287" fill="none" xmlns="http://www.w3.org/2000/svg">
<g clip-path="url(#clip0_95_3068)">
<path d="M139.793 234.732C153.692 234.732 164.96 222.058 164.96 206.424C164.96 190.789 153.692 178.115 139.793 178.115C125.893 178.115 114.625 190.789 114.625 206.424C114.625 222.058 125.893 234.732 139.793 234.732Z" fill="#E4E4E4"/>
<path opacity="0.2" d="M121.21 187.516C118.862 193.693 118.544 200.607 120.311 207.023C122.079 213.44 125.817 218.941 130.859 222.542C135.9 226.144 141.915 227.612 147.83 226.684C153.745 225.756 159.174 222.492 163.147 217.477C161.712 221.251 159.566 224.628 156.856 227.376C154.146 230.125 150.938 232.177 147.452 233.392C143.967 234.607 140.289 234.954 136.672 234.412C133.056 233.869 129.588 232.448 126.508 230.247C123.428 228.047 120.81 225.12 118.836 221.668C116.861 218.217 115.578 214.324 115.074 210.259C114.57 206.195 114.858 202.055 115.917 198.128C116.977 194.201 118.783 190.58 121.21 187.516Z" fill="black"/>
<path d="M139.862 206.424H139.931L141.176 286.683H138.548L139.862 206.424Z" fill="#3F3D56"/>
<path d="M88.8715 181.941C116.896 181.941 139.614 156.387 139.614 124.866C139.614 93.3437 116.896 67.7903 88.8715 67.7903C60.8473 67.7903 38.1292 93.3437 38.1292 124.866C38.1292 156.387 60.8473 181.941 88.8715 181.941Z" fill="#E4E4E4"/>
<path opacity="0.2" d="M51.405 86.7438C46.6719 99.1972 46.0299 113.138 49.5936 126.075C53.1573 139.012 60.6945 150.102 70.8585 157.363C81.0224 164.625 93.1507 167.584 105.076 165.714C117.002 163.843 127.947 157.263 135.957 147.151C133.065 154.759 128.738 161.57 123.274 167.11C117.811 172.651 111.341 176.789 104.315 179.238C97.2879 181.687 89.8718 182.389 82.5802 181.294C75.2885 180.199 68.2956 177.335 62.086 172.898C55.8764 168.462 50.5985 162.56 46.618 155.601C42.6375 148.643 40.0497 140.794 39.0337 132.599C38.0177 124.404 38.5979 116.058 40.7341 108.14C42.8702 100.223 46.5113 92.9217 51.405 86.7438Z" fill="black"/>
<path d="M89.0107 124.865H89.1504L91.6597 286.683H86.3623L89.0107 124.865Z" fill="#3F3D56"/>
<path d="M423.417 202.927H190.836V280.479H423.417V202.927Z" fill="#F0F0F0"/>
<path d="M320.686 218.955H293.567V280.479H320.686V218.955Z" fill="#CACACA"/>
<path d="M409.857 111.416H204.396V182.764H409.857V111.416Z" fill="#F0F0F0"/>
<path d="M430.688 115.811H183.566C183.153 115.811 182.75 115.672 182.408 115.412C182.066 115.152 181.801 114.784 181.647 114.353C181.493 113.923 181.457 113.45 181.543 112.997C181.63 112.543 181.835 112.129 182.132 111.807L249.671 38.786V6.97966C249.672 6.36284 249.89 5.77147 250.277 5.33531C250.665 4.89915 251.191 4.6538 251.739 4.65311H265.069C265.617 4.65378 266.143 4.89912 266.531 5.33529C266.919 5.77146 267.137 6.36283 267.137 6.97966V19.9019L272.239 14.3865C280.587 5.36093 291.662 0.223672 303.239 0.00712634C314.817 -0.209419 326.038 4.51079 334.648 13.2192L432.071 111.754C432.382 112.069 432.601 112.482 432.699 112.94C432.796 113.397 432.769 113.878 432.619 114.317C432.469 114.756 432.204 115.134 431.859 115.401C431.515 115.668 431.106 115.811 430.688 115.811Z" fill="#CACACA"/>
<path d="M258.634 129.512C260.354 129.512 262.058 129.893 263.647 130.633C265.237 131.374 266.681 132.459 267.897 133.827C269.114 135.196 270.078 136.82 270.737 138.608C271.395 140.395 271.734 142.311 271.734 144.246V164.151H245.534V144.246C245.534 142.311 245.873 140.395 246.531 138.608C247.19 136.82 248.155 135.196 249.371 133.827C250.587 132.459 252.032 131.374 253.621 130.633C255.21 129.893 256.914 129.512 258.634 129.512Z" fill="white"/>
<path d="M307.127 129.77C310.601 129.77 313.933 131.322 316.39 134.086C318.846 136.849 320.227 140.597 320.227 144.505V164.41H294.027V144.505C294.027 140.597 295.407 136.849 297.864 134.086C300.32 131.322 303.652 129.77 307.127 129.77Z" fill="white"/>
<path d="M355.619 130.029C359.094 130.029 362.426 131.581 364.882 134.344C367.339 137.108 368.719 140.855 368.719 144.763V164.668H342.52V144.763C342.52 140.855 343.9 137.108 346.356 134.344C348.813 131.581 352.145 130.029 355.619 130.029Z" fill="white"/>
<path d="M374.924 218.179C378.398 218.179 381.73 219.732 384.187 222.495C386.644 225.258 388.024 229.006 388.024 232.914V252.819H361.824V232.914C361.824 229.006 363.204 225.258 365.661 222.495C368.118 219.732 371.45 218.179 374.924 218.179Z" fill="white"/>
<path d="M245.304 218.179C248.779 218.179 252.111 219.732 254.568 222.495C257.024 225.258 258.404 229.006 258.404 232.914V252.819H232.205V232.914C232.205 230.979 232.543 229.063 233.202 227.275C233.86 225.487 234.825 223.863 236.041 222.495C237.258 221.127 238.702 220.041 240.291 219.301C241.881 218.56 243.584 218.179 245.304 218.179Z" fill="white"/>
<path d="M457.396 204.138L413.767 182.424C413.532 182.307 413.279 182.247 413.023 182.247H205.092C204.854 182.247 204.619 182.298 204.399 182.399L156.909 204.114C156.514 204.294 156.187 204.624 155.984 205.045C155.781 205.467 155.715 205.955 155.797 206.426C155.878 206.897 156.103 207.321 156.432 207.626C156.761 207.931 157.175 208.097 157.601 208.097H169.923V279.445H168.544V286.683H445.71V279.445H443.412V208.097H456.652C457.074 208.097 457.483 207.934 457.81 207.636C458.138 207.337 458.364 206.921 458.451 206.457C458.538 205.993 458.481 205.509 458.289 205.087C458.097 204.665 457.782 204.33 457.396 204.138ZM439.735 279.445H173.6V208.097H439.735V279.445Z" fill="#CACACA"/>
<path d="M274.952 161.308H241.397V167.512H274.952V161.308Z" fill="#CACACA"/>
<path d="M324.134 161.308H290.58V167.512H324.134V161.308Z" fill="#CACACA"/>
<path d="M373.316 161.308H339.762V167.512H373.316V161.308Z" fill="#CACACA"/>
<path d="M391.702 250.751H358.147V256.955H391.702V250.751Z" fill="#CACACA"/>
<path d="M261.622 250.751H228.067V256.955H261.622V250.751Z" fill="#CACACA"/>
<path d="M511.437 287H0.563256C0.413871 287 0.270605 286.933 0.164974 286.814C0.0593425 286.696 0 286.534 0 286.366C0 286.198 0.0593425 286.037 0.164974 285.918C0.270605 285.8 0.413871 285.733 0.563256 285.733H511.437C511.586 285.733 511.729 285.8 511.835 285.918C511.941 286.037 512 286.198 512 286.366C512 286.534 511.941 286.696 511.835 286.814C511.729 286.933 511.586 287 511.437 287Z" fill="#3F3D56"/>
<path d="M382.939 110.352C382.939 110.758 382.934 111.17 382.928 111.575C382.922 112.063 382.911 112.545 382.894 113.032C382.877 113.457 382.86 113.875 382.838 114.293C382.77 115.693 382.663 117.087 382.517 118.487C382.483 118.842 382.444 119.191 382.399 119.545C382.365 119.818 382.331 120.097 382.292 120.375C382.252 120.686 382.213 120.996 382.168 121.307C382.078 121.966 381.976 122.624 381.863 123.283C381.807 123.613 381.751 123.942 381.689 124.272C381.571 124.924 381.441 125.583 381.306 126.236C381.295 126.286 381.283 126.343 381.272 126.394C381.204 126.717 381.137 127.034 381.064 127.357C381.041 127.452 381.024 127.541 380.996 127.636C380.945 127.877 380.889 128.117 380.833 128.358C380.754 128.694 380.675 129.023 380.591 129.359C380.455 129.879 380.32 130.392 380.179 130.911C380.162 130.965 380.147 131.02 380.134 131.076C379.864 132.058 379.577 133.027 379.261 133.99C379.098 134.497 378.923 135.01 378.749 135.517C378.574 136.024 378.394 136.531 378.208 137.031C378.028 137.519 377.842 138.007 377.656 138.489C377.611 138.603 377.566 138.717 377.515 138.831C377.318 139.331 377.115 139.819 376.907 140.307C376.901 140.313 376.901 140.326 376.896 140.332C376.732 140.725 376.558 141.118 376.383 141.504C376.383 141.516 376.379 141.527 376.372 141.536C376.203 141.916 376.028 142.296 375.848 142.67L375.561 143.285L375.527 143.354C375.166 144.108 374.795 144.856 374.4 145.597C374.316 145.762 374.231 145.926 374.147 146.085C374.062 146.25 373.972 146.414 373.882 146.573C373.826 146.687 373.764 146.801 373.696 146.915C373.578 147.13 373.46 147.352 373.336 147.567C373.313 147.612 373.285 147.656 373.263 147.7C373.049 148.074 372.835 148.442 372.62 148.815C372.356 149.265 372.085 149.709 371.809 150.152L365.692 161.163L365.428 160.916L365.354 160.84H365.349L365.107 160.612L364.442 159.979C364.239 160.2 364.042 160.422 363.839 160.638C363.76 160.726 363.676 160.809 363.597 160.897C363.535 160.961 363.479 161.024 363.417 161.087C352.842 172.703 338.775 179.43 324 179.936H323.983C312.799 180.281 301.728 177.342 291.861 171.408C291.641 171.281 291.427 171.154 291.213 171.009C289.929 170.223 288.673 169.393 287.439 168.506C287.434 168.5 287.428 168.5 287.422 168.494C285.992 167.353 284.595 166.137 283.232 164.844C275.919 157.911 270.134 149.167 266.329 139.297C262.525 129.427 260.805 118.7 261.304 107.957C261.321 107.533 261.344 107.115 261.372 106.69C261.462 105.157 261.601 103.63 261.788 102.11C261.839 101.685 261.896 101.261 261.952 100.843H382.365C382.601 102.781 382.765 104.731 382.855 106.69C382.911 107.913 382.939 109.13 382.939 110.352Z" fill="#F0F0F0"/>
<path d="M382.365 100.843C380.197 84.6272 372.928 69.8249 361.88 59.1267C350.831 48.4284 336.737 42.5445 322.158 42.5445C307.58 42.5445 293.485 48.4284 282.437 59.1267C271.388 69.8249 264.12 84.6272 261.952 100.843C261.896 101.261 261.839 101.685 261.788 102.11C261.603 103.63 261.464 105.157 261.372 106.69H382.855C382.765 104.733 382.601 102.784 382.365 100.843Z" fill="#0C5274"/>
<path d="M326.102 171.406H291.215V140.016C291.859 125.67 302.76 124.512 313.002 125.282C314.723 125.281 316.426 125.662 318.015 126.403C319.605 127.143 321.049 128.228 322.265 129.597C323.482 130.965 324.447 132.589 325.105 134.377C325.763 136.165 326.102 138.081 326.102 140.016V171.406Z" fill="#0C5274"/>
<path d="M291.212 149.088V149.094C291.212 149.101 291.218 149.101 291.224 149.101L291.212 149.088ZM277.182 100.843C277.159 101.001 277.131 101.16 277.109 101.318C277.131 101.16 277.159 101.001 277.187 100.843H277.182ZM276.483 106.691C276.467 106.931 276.45 107.172 276.438 107.413C276.45 107.172 276.466 106.931 276.489 106.691C276.488 106.646 276.49 106.602 276.495 106.557C276.489 106.602 276.489 106.646 276.483 106.691ZM291.212 149.094C291.212 149.101 291.218 149.101 291.224 149.101L291.212 149.088V149.094ZM277.182 100.843C277.159 101.001 277.131 101.16 277.109 101.318C277.131 101.16 277.159 101.001 277.187 100.843H277.182ZM276.438 107.413C276.45 107.172 276.466 106.931 276.489 106.691C276.488 106.646 276.49 106.602 276.495 106.557C276.489 106.602 276.489 106.646 276.483 106.691C276.467 106.931 276.45 107.172 276.438 107.413ZM450.451 223.961C450.341 223.831 450.225 223.708 450.102 223.594L450.096 223.588L422.203 197.111L421.482 196.427L418.739 193.823L418.052 193.171L414.143 189.458L413.073 188.444L410.859 186.341L409.727 185.264L399.048 175.133L392.925 169.324L392.103 168.544L374.062 151.419C374.338 150.976 374.608 150.532 374.873 150.083C375.087 149.709 375.301 149.341 375.515 148.968C375.538 148.923 375.566 148.879 375.588 148.834C375.712 148.619 375.83 148.397 375.949 148.182C376.016 148.068 376.078 147.954 376.135 147.84C376.225 147.681 376.315 147.517 376.4 147.352C376.484 147.194 376.568 147.029 376.653 146.864C377.047 146.123 377.419 145.375 377.779 144.621L377.813 144.552L378.1 143.937C378.281 143.563 378.455 143.183 378.624 142.803C378.631 142.794 378.635 142.783 378.635 142.771C378.81 142.385 378.985 141.992 379.148 141.599C379.154 141.593 379.154 141.58 379.159 141.574C379.368 141.086 379.571 140.598 379.768 140.098C379.818 139.984 379.863 139.87 379.909 139.756C380.094 139.274 380.28 138.786 380.461 138.299C380.646 137.798 380.827 137.291 381.001 136.784C381.176 136.278 381.35 135.764 381.514 135.258C381.824 134.288 382.115 133.317 382.387 132.343C382.399 132.287 382.414 132.232 382.432 132.178C382.573 131.659 382.708 131.146 382.843 130.626C382.928 130.29 383.006 129.961 383.085 129.625C383.142 129.384 383.198 129.144 383.249 128.903C383.277 128.808 383.294 128.719 383.316 128.624C383.389 128.301 383.457 127.984 383.525 127.661C383.536 127.611 383.547 127.554 383.558 127.503C383.693 126.85 383.823 126.191 383.941 125.539C384.003 125.209 384.06 124.88 384.116 124.55C384.223 123.892 384.33 123.233 384.42 122.574C384.465 122.263 384.505 121.953 384.544 121.642C384.583 121.364 384.617 121.085 384.651 120.812C384.696 120.458 384.736 120.109 384.769 119.754C384.916 118.354 385.023 116.961 385.09 115.56C385.113 115.142 385.13 114.724 385.147 114.299C385.164 113.812 385.175 113.33 385.181 112.842C385.186 112.437 385.192 112.025 385.192 111.62C385.192 110.397 385.164 109.18 385.107 107.958C385.017 106 384.854 104.051 384.617 102.11C382.599 85.5201 375.341 70.3012 364.169 59.235C352.997 48.1689 338.657 41.9947 323.771 41.8409C308.885 41.6871 294.447 47.5641 283.097 58.3976C271.746 69.2311 264.24 84.2975 261.951 100.843C261.895 101.261 261.839 101.685 261.788 102.11C261.602 103.63 261.463 105.157 261.371 106.691C261.343 107.115 261.321 107.533 261.304 107.958C260.804 118.7 262.524 129.427 266.329 139.297C270.133 149.167 275.919 157.911 283.231 164.844C284.594 166.137 285.991 167.353 287.422 168.494C287.427 168.5 287.433 168.5 287.439 168.506C287.917 168.887 288.396 169.26 288.881 169.628C289.652 170.198 290.43 170.756 291.212 171.288C291.274 171.326 291.337 171.37 291.398 171.408C292.074 171.864 292.756 172.301 293.437 172.726H293.443C295.98 174.295 298.613 175.658 301.323 176.806C309.273 180.17 317.752 181.667 326.236 181.203H326.253C336.155 180.664 345.797 177.455 354.365 171.845C355.61 171.034 356.837 170.166 358.037 169.241C358.336 169.013 358.64 168.779 358.933 168.544C359.293 168.259 359.654 167.962 360.014 167.664C360.02 167.664 360.02 167.657 360.026 167.657C360.052 167.632 360.081 167.609 360.11 167.588C360.352 167.379 360.6 167.17 360.837 166.967C360.899 166.916 360.961 166.866 361.022 166.808C361.039 166.796 361.054 166.781 361.068 166.764C361.208 166.65 361.344 166.523 361.484 166.403C361.625 166.283 361.76 166.156 361.901 166.029C361.925 166.012 361.948 165.993 361.969 165.972C362.127 165.826 362.284 165.687 362.442 165.541C362.605 165.396 362.763 165.244 362.915 165.098C363.073 164.952 363.225 164.806 363.383 164.654C363.518 164.528 363.659 164.395 363.794 164.255C363.839 164.217 363.878 164.173 363.923 164.129C363.941 164.11 363.959 164.093 363.98 164.078C364.165 163.9 364.346 163.717 364.526 163.533C364.571 163.489 364.61 163.444 364.656 163.4C364.932 163.121 365.208 162.842 365.478 162.551C365.54 162.488 365.607 162.418 365.669 162.355C365.731 162.291 365.788 162.228 365.85 162.164C365.929 162.076 366.013 161.993 366.092 161.905C366.295 161.689 366.492 161.468 366.694 161.246L367.359 161.879L367.601 162.107H367.607L367.68 162.184L367.945 162.431L371.876 166.169L371.961 166.251L372.029 166.308L372.474 166.732L373.363 167.581L374.253 168.424L374.383 168.544L378.523 172.472L379.097 173.017L383.091 176.806L403.762 196.427L404.483 197.111L432.776 223.961L440.03 230.848L442.728 233.408C443.301 233.953 443.964 234.366 444.678 234.622C445.393 234.879 446.145 234.975 446.893 234.904C447.641 234.834 448.368 234.598 449.035 234.211C449.701 233.824 450.294 233.292 450.777 232.647C451.183 232.112 451.504 231.504 451.729 230.848C452.138 229.685 452.235 228.413 452.008 227.189C451.781 225.965 451.239 224.843 450.451 223.961ZM287.292 77.0972C292.943 69.5652 300.373 63.9849 308.724 61.0011C317.074 58.0173 326.005 57.7517 334.484 60.235C342.963 62.7182 350.645 67.849 356.642 75.0346C362.638 82.2203 366.706 91.1675 368.373 100.843C368.446 101.267 368.514 101.685 368.576 102.11C368.807 103.624 368.976 105.157 369.077 106.691C369.105 107.115 369.133 107.533 369.15 107.958C369.201 108.908 369.224 109.865 369.224 110.815C369.227 116.58 368.378 122.305 366.711 127.756V127.763C364.849 133.875 361.99 139.543 358.279 144.476C358.201 144.577 358.122 144.685 358.037 144.786C357.294 145.774 356.511 146.725 355.705 147.631C355.7 147.637 355.694 147.65 355.689 147.656C355.412 147.967 355.131 148.283 354.849 148.575C354.275 149.202 353.689 149.798 353.092 150.368C352.196 151.248 351.278 152.074 350.338 152.845C350.022 153.105 349.707 153.358 349.386 153.612C349.07 153.865 348.749 154.106 348.428 154.347C347.786 154.828 347.133 155.291 346.474 155.728C346.147 155.949 345.809 156.165 345.477 156.374C345.144 156.589 344.806 156.792 344.468 156.988C344.131 157.191 343.793 157.388 343.449 157.578C342.767 157.964 342.08 158.325 341.382 158.661C341.033 158.838 340.683 159.003 340.334 159.155C340.114 159.257 339.9 159.358 339.681 159.447C339.595 159.491 339.506 159.529 339.416 159.561C339.298 159.618 339.179 159.668 339.061 159.713C339.023 159.732 338.983 159.749 338.943 159.763C338.701 159.871 338.464 159.966 338.216 160.061C337.861 160.207 337.506 160.34 337.146 160.467C336.786 160.6 336.431 160.726 336.07 160.84C335.71 160.967 335.344 161.081 334.983 161.189C334.617 161.303 334.257 161.411 333.89 161.506C333.502 161.62 333.113 161.721 332.719 161.816C332.375 161.905 332.037 161.981 331.694 162.051C331.373 162.127 331.046 162.19 330.725 162.253C330.274 162.342 329.824 162.424 329.368 162.494C329.12 162.538 328.877 162.576 328.63 162.602C328.523 162.621 328.421 162.633 328.32 162.646C328.004 162.697 327.689 162.735 327.379 162.766C327.295 162.773 327.216 162.785 327.137 162.792C326.793 162.83 326.444 162.862 326.101 162.893C325.363 162.95 324.631 162.988 323.893 163.007C323.521 163.014 323.143 163.02 322.772 163.02C322.4 163.02 322.028 163.014 321.656 163.001C321.656 163.001 321.656 163.007 321.651 163.001C321.645 163.007 321.645 163.007 321.64 163.001C321.639 163.002 321.638 163.002 321.637 163.003C321.636 163.003 321.635 163.004 321.634 163.004C321.633 163.004 321.632 163.003 321.631 163.003C321.63 163.002 321.629 163.002 321.628 163.001C321.61 163.007 321.59 163.007 321.572 163.001C321.307 163.001 321.042 162.988 320.783 162.969C320.592 162.963 320.395 162.957 320.198 162.938C319.933 162.925 319.668 162.906 319.404 162.88C319.319 162.88 319.235 162.868 319.15 162.862C319.11 162.86 319.071 162.856 319.032 162.849C318.761 162.824 318.485 162.798 318.215 162.766C318.08 162.754 317.939 162.741 317.804 162.722C317.393 162.671 316.981 162.614 316.576 162.551C316.114 162.488 315.652 162.412 315.196 162.317C314.982 162.285 314.773 162.241 314.565 162.196C314.289 162.146 314.013 162.089 313.737 162.025C313.45 161.962 313.163 161.899 312.875 161.822C312.644 161.765 312.408 161.708 312.177 161.645C312.064 161.62 311.952 161.588 311.845 161.556C311.253 161.398 310.667 161.227 310.087 161.037C309.721 160.923 309.355 160.803 308.994 160.676C308.499 160.505 308.009 160.321 307.519 160.125C307.327 160.055 307.141 159.979 306.95 159.896C306.758 159.827 306.572 159.744 306.381 159.662C306.206 159.592 306.032 159.516 305.863 159.44C305.581 159.32 305.305 159.193 305.029 159.067C304.46 158.807 303.903 158.534 303.345 158.243C303.03 158.072 302.714 157.907 302.404 157.736C301.182 157.071 299.979 156.332 298.794 155.519C298.501 155.322 298.208 155.113 297.915 154.904C297.549 154.651 297.194 154.385 296.839 154.119C296.642 153.966 296.451 153.821 296.259 153.669C295.904 153.39 295.555 153.105 295.212 152.82C295.031 152.674 294.851 152.522 294.676 152.37C294.051 151.838 293.437 151.28 292.835 150.71C292.547 150.438 292.26 150.159 291.978 149.874C291.86 149.76 291.742 149.639 291.624 149.519C291.489 149.38 291.353 149.246 291.224 149.101L291.212 149.088C291.015 148.892 290.818 148.683 290.627 148.474C290.328 148.157 290.035 147.834 289.754 147.504C289.461 147.181 289.179 146.845 288.903 146.516C288.622 146.186 288.351 145.851 288.086 145.508C287.816 145.173 287.551 144.831 287.292 144.482C287.039 144.153 286.791 143.811 286.554 143.475C285.98 142.676 285.432 141.863 284.91 141.036C284.667 140.655 284.437 140.275 284.211 139.889C283.969 139.496 283.738 139.097 283.518 138.698C283.287 138.299 283.068 137.893 282.854 137.481C282.848 137.467 282.841 137.454 282.831 137.443C282.409 136.639 282.003 135.828 281.626 135.004C281.237 134.168 280.871 133.323 280.527 132.47C280.353 132.045 280.184 131.615 280.026 131.184C279.699 130.316 279.395 129.448 279.114 128.567C278.973 128.143 278.843 127.718 278.714 127.287C278.71 127.259 278.702 127.231 278.691 127.205C278.432 126.331 278.196 125.45 277.987 124.563C277.982 124.551 277.982 124.538 277.976 124.525C277.869 124.088 277.768 123.651 277.677 123.207C277.587 122.821 277.508 122.434 277.435 122.042C277.351 121.604 277.266 121.167 277.193 120.724C277.154 120.496 277.114 120.268 277.08 120.04C277.047 119.85 277.018 119.653 276.99 119.463C276.962 119.273 276.934 119.077 276.906 118.88C276.849 118.494 276.799 118.107 276.754 117.721C276.697 117.265 276.652 116.808 276.607 116.346C276.556 115.795 276.511 115.244 276.472 114.686C276.444 114.312 276.427 113.932 276.41 113.552C276.393 113.204 276.376 112.855 276.371 112.507C276.365 112.488 276.365 112.468 276.371 112.45C276.37 112.449 276.369 112.448 276.369 112.447C276.368 112.446 276.368 112.444 276.368 112.443C276.368 112.442 276.368 112.441 276.369 112.44C276.369 112.439 276.37 112.438 276.371 112.437C276.365 112.431 276.365 112.431 276.371 112.424C276.37 112.423 276.369 112.422 276.369 112.421C276.368 112.42 276.368 112.419 276.368 112.418C276.368 112.417 276.368 112.416 276.369 112.415C276.369 112.413 276.37 112.412 276.371 112.412C276.365 112.272 276.359 112.133 276.359 111.994C276.348 111.582 276.343 111.17 276.343 110.758C276.343 110.384 276.348 110.017 276.354 109.643C276.365 109.123 276.382 108.604 276.404 108.084C276.404 107.97 276.416 107.863 276.421 107.749C276.427 107.635 276.433 107.527 276.438 107.413C276.45 107.172 276.466 106.931 276.489 106.691C276.488 106.646 276.49 106.602 276.495 106.557C276.512 106.285 276.534 106.013 276.556 105.74C276.602 105.195 276.658 104.644 276.72 104.099C276.754 103.827 276.782 103.555 276.821 103.282C276.844 103.092 276.872 102.896 276.9 102.699C276.923 102.503 276.951 102.306 276.985 102.11C277.024 101.85 277.064 101.584 277.109 101.318C277.131 101.16 277.159 101.001 277.187 100.843C277.294 100.209 277.413 99.5758 277.542 98.9423C277.672 98.3024 277.818 97.6688 277.976 97.0353C278.128 96.3954 278.297 95.7555 278.477 95.1156C278.562 94.7925 278.652 94.4757 278.753 94.1589C278.939 93.5191 279.136 92.8855 279.356 92.2583C279.457 91.9478 279.564 91.6311 279.683 91.3206C279.908 90.6934 280.144 90.0662 280.387 89.4516C280.511 89.1412 280.635 88.8308 280.77 88.5203C281.023 87.9058 281.288 87.2912 281.575 86.6893C281.851 86.0748 282.15 85.4729 282.454 84.8774C282.758 84.2818 283.073 83.6863 283.406 83.0971C283.558 82.8056 283.727 82.5079 283.901 82.2228C284.239 81.6399 284.594 81.057 284.955 80.4868C285.681 79.3336 286.464 78.1996 287.292 77.0972ZM276.483 106.691C276.467 106.931 276.45 107.172 276.438 107.413C276.45 107.172 276.466 106.931 276.489 106.691C276.488 106.646 276.49 106.602 276.495 106.557C276.489 106.602 276.489 106.646 276.483 106.691ZM277.182 100.843C277.159 101.001 277.131 101.16 277.109 101.318C277.131 101.16 277.159 101.001 277.187 100.843H277.182ZM291.212 149.088V149.094C291.212 149.101 291.218 149.101 291.224 149.101L291.212 149.088Z" fill="#3F3D56"/>
<path opacity="0.3" d="M292.836 150.709C283.927 142.253 278.171 130.337 276.711 117.328C275.251 104.318 278.194 91.1674 284.955 80.4859C284.067 81.4918 283.209 82.5452 282.38 83.6462C278.447 88.889 275.47 94.9518 273.621 101.488C271.771 108.025 271.084 114.908 271.598 121.743C272.113 128.578 273.82 135.233 276.621 141.326C279.422 147.419 283.263 152.833 287.924 157.256C297.338 166.191 309.521 170.553 321.794 169.384C334.067 168.214 345.424 161.609 353.367 151.02C354.194 149.918 354.973 148.789 355.703 147.633C347.48 156.927 336.45 162.403 324.803 162.973C313.157 163.542 301.746 159.165 292.836 150.709Z" fill="black"/>
</g>
<defs>
<clipPath id="clip0_95_3068">
<rect width="512" height="287" fill="white"/>
</clipPath>
</defs>
</svg>
