<svg xmlns="http://www.w3.org/2000/svg" xmlns:xlink="http://www.w3.org/1999/xlink" width="500" zoomAndPan="magnify" viewBox="0 0 375 374.999991" height="500" preserveAspectRatio="xMidYMid meet" version="1.0"><defs><g/><clipPath id="7a6d4f0c89"><path d="M 21.375 184 L 67 184 L 67 230 L 21.375 230 Z M 21.375 184 " clip-rule="nonzero"/></clipPath><clipPath id="57507803de"><path d="M 32 167 L 87.375 167 L 87.375 218 L 32 218 Z M 32 167 " clip-rule="nonzero"/></clipPath></defs><g clip-path="url(#7a6d4f0c89)"><path fill="#0c5274" d="M 66.355469 229.160156 L 21.367188 229.160156 L 21.367188 184.175781 L 66.355469 184.175781 Z M 27.222656 223.304688 L 60.5 223.304688 L 60.5 190.027344 L 27.222656 190.027344 Z M 27.222656 223.304688 " fill-opacity="1" fill-rule="nonzero"/></g><g clip-path="url(#57507803de)"><path fill="#00bbc9" d="M 36.421875 198.714844 L 49.335938 210.371094 L 44.703125 210.582031 C 46.28125 208.914062 47.78125 207.175781 49.257812 205.417969 C 50.730469 203.65625 52.160156 201.867188 53.578125 200.0625 C 56.394531 196.425781 59.207031 192.808594 62.023438 189.15625 C 64.835938 185.503906 67.601562 181.851562 70.367188 178.179688 C 71.753906 176.347656 73.128906 174.503906 74.496094 172.652344 C 75.863281 170.804688 77.238281 168.957031 78.589844 167.097656 L 87.460938 174.722656 C 85.824219 176.339844 84.203125 177.976562 82.582031 179.605469 C 80.960938 181.238281 79.34375 182.867188 77.738281 184.53125 C 74.519531 187.816406 71.316406 191.113281 68.132812 194.429688 C 64.941406 197.734375 61.800781 201.070312 58.617188 204.394531 C 57.046875 206.070312 55.484375 207.753906 53.96875 209.476562 C 52.457031 211.199219 50.957031 212.9375 49.546875 214.753906 L 47.382812 217.53125 L 44.921875 214.964844 L 32.84375 202.398438 Z M 36.421875 198.714844 " fill-opacity="1" fill-rule="nonzero"/></g><g fill="#faf8f0" fill-opacity="1"><g transform="translate(96.522046, 224.606529)"><g><path d="M 10.984375 0 L 7.109375 0 L 7.109375 -60.78125 L 10.984375 -60.78125 Z M 10.984375 0 "/></g></g></g><g fill="#faf8f0" fill-opacity="1"><g transform="translate(114.606216, 224.606529)"><g><path d="M 10.984375 0 L 7.109375 0 L 7.109375 -42.46875 L 10.984375 -42.46875 Z M 6.5625 -54.265625 C 6.5625 -56.765625 7.382812 -58.015625 9.03125 -58.015625 C 9.832031 -58.015625 10.460938 -57.6875 10.921875 -57.03125 C 11.378906 -56.382812 11.609375 -55.460938 11.609375 -54.265625 C 11.609375 -53.085938 11.378906 -52.160156 10.921875 -51.484375 C 10.460938 -50.804688 9.832031 -50.46875 9.03125 -50.46875 C 7.382812 -50.46875 6.5625 -51.734375 6.5625 -54.265625 Z M 6.5625 -54.265625 "/></g></g></g><g fill="#faf8f0" fill-opacity="1"><g transform="translate(132.690386, 224.606529)"><g><path d="M 33.4375 -11.0625 C 33.4375 -7.257812 31.988281 -4.332031 29.09375 -2.28125 C 26.207031 -0.238281 22.109375 0.78125 16.796875 0.78125 C 11.117188 0.78125 6.613281 -0.09375 3.28125 -1.84375 L 3.28125 -6.015625 C 7.550781 -3.878906 12.054688 -2.8125 16.796875 -2.8125 C 20.992188 -2.8125 24.175781 -3.507812 26.34375 -4.90625 C 28.519531 -6.300781 29.609375 -8.15625 29.609375 -10.46875 C 29.609375 -12.601562 28.742188 -14.398438 27.015625 -15.859375 C 25.285156 -17.316406 22.441406 -18.75 18.484375 -20.15625 C 14.234375 -21.695312 11.25 -23.019531 9.53125 -24.125 C 7.8125 -25.226562 6.515625 -26.476562 5.640625 -27.875 C 4.773438 -29.269531 4.34375 -30.96875 4.34375 -32.96875 C 4.34375 -36.144531 5.675781 -38.65625 8.34375 -40.5 C 11.007812 -42.351562 14.738281 -43.28125 19.53125 -43.28125 C 24.113281 -43.28125 28.460938 -42.421875 32.578125 -40.703125 L 31.140625 -37.1875 C 26.972656 -38.90625 23.101562 -39.765625 19.53125 -39.765625 C 16.070312 -39.765625 13.328125 -39.191406 11.296875 -38.046875 C 9.265625 -36.898438 8.25 -35.3125 8.25 -33.28125 C 8.25 -31.070312 9.035156 -29.300781 10.609375 -27.96875 C 12.179688 -26.644531 15.257812 -25.160156 19.84375 -23.515625 C 23.675781 -22.140625 26.460938 -20.894531 28.203125 -19.78125 C 29.953125 -18.675781 31.257812 -17.421875 32.125 -16.015625 C 33 -14.609375 33.4375 -12.957031 33.4375 -11.0625 Z M 33.4375 -11.0625 "/></g></g></g><g fill="#faf8f0" fill-opacity="1"><g transform="translate(169.952369, 224.606529)"><g><path d="M 18.328125 -2.65625 C 20.773438 -2.65625 22.910156 -2.863281 24.734375 -3.28125 L 24.734375 -0.15625 C 22.859375 0.46875 20.695312 0.78125 18.25 0.78125 C 14.5 0.78125 11.726562 -0.21875 9.9375 -2.21875 C 8.15625 -4.226562 7.265625 -7.382812 7.265625 -11.6875 L 7.265625 -39.109375 L 0.984375 -39.109375 L 0.984375 -41.375 L 7.265625 -43.125 L 9.21875 -52.734375 L 11.21875 -52.734375 L 11.21875 -42.46875 L 23.671875 -42.46875 L 23.671875 -39.109375 L 11.21875 -39.109375 L 11.21875 -12.234375 C 11.21875 -8.972656 11.789062 -6.5625 12.9375 -5 C 14.082031 -3.4375 15.878906 -2.65625 18.328125 -2.65625 Z M 18.328125 -2.65625 "/></g></g></g><g fill="#faf8f0" fill-opacity="1"><g transform="translate(196.746625, 224.606529)"><g><path d="M 22.890625 -39.109375 L 12.890625 -39.109375 L 12.890625 0 L 9.03125 0 L 9.03125 -39.109375 L 1.140625 -39.109375 L 1.140625 -41.375 L 9.03125 -42.8125 L 9.03125 -46.09375 C 9.03125 -51.300781 9.984375 -55.125 11.890625 -57.5625 C 13.804688 -60 16.941406 -61.21875 21.296875 -61.21875 C 23.640625 -61.21875 25.984375 -60.863281 28.328125 -60.15625 L 27.421875 -56.796875 C 25.335938 -57.453125 23.269531 -57.78125 21.21875 -57.78125 C 18.195312 -57.78125 16.050781 -56.882812 14.78125 -55.09375 C 13.519531 -53.3125 12.890625 -50.414062 12.890625 -46.40625 L 12.890625 -42.46875 L 22.890625 -42.46875 Z M 22.890625 -39.109375 "/></g></g></g><g fill="#faf8f0" fill-opacity="1"><g transform="translate(220.728657, 224.606529)"><g><path d="M 42.234375 -21.296875 C 42.234375 -14.367188 40.550781 -8.957031 37.1875 -5.0625 C 33.832031 -1.164062 29.195312 0.78125 23.28125 0.78125 C 19.5625 0.78125 16.28125 -0.113281 13.4375 -1.90625 C 10.601562 -3.707031 8.429688 -6.285156 6.921875 -9.640625 C 5.410156 -13.003906 4.65625 -16.890625 4.65625 -21.296875 C 4.65625 -28.222656 6.332031 -33.617188 9.6875 -37.484375 C 13.050781 -41.347656 17.660156 -43.28125 23.515625 -43.28125 C 29.347656 -43.28125 33.925781 -41.320312 37.25 -37.40625 C 40.570312 -33.488281 42.234375 -28.117188 42.234375 -21.296875 Z M 8.71875 -21.296875 C 8.71875 -15.460938 10 -10.910156 12.5625 -7.640625 C 15.125 -4.367188 18.75 -2.734375 23.4375 -2.734375 C 28.125 -2.734375 31.75 -4.367188 34.3125 -7.640625 C 36.882812 -10.910156 38.171875 -15.460938 38.171875 -21.296875 C 38.171875 -27.148438 36.875 -31.691406 34.28125 -34.921875 C 31.6875 -38.148438 28.046875 -39.765625 23.359375 -39.765625 C 18.671875 -39.765625 15.054688 -38.15625 12.515625 -34.9375 C 9.984375 -31.726562 8.71875 -27.179688 8.71875 -21.296875 Z M 8.71875 -21.296875 "/></g></g></g><g fill="#faf8f0" fill-opacity="1"><g transform="translate(267.599076, 224.606529)"><g><path d="M 42.234375 -21.296875 C 42.234375 -14.367188 40.550781 -8.957031 37.1875 -5.0625 C 33.832031 -1.164062 29.195312 0.78125 23.28125 0.78125 C 19.5625 0.78125 16.28125 -0.113281 13.4375 -1.90625 C 10.601562 -3.707031 8.429688 -6.285156 6.921875 -9.640625 C 5.410156 -13.003906 4.65625 -16.890625 4.65625 -21.296875 C 4.65625 -28.222656 6.332031 -33.617188 9.6875 -37.484375 C 13.050781 -41.347656 17.660156 -43.28125 23.515625 -43.28125 C 29.347656 -43.28125 33.925781 -41.320312 37.25 -37.40625 C 40.570312 -33.488281 42.234375 -28.117188 42.234375 -21.296875 Z M 8.71875 -21.296875 C 8.71875 -15.460938 10 -10.910156 12.5625 -7.640625 C 15.125 -4.367188 18.75 -2.734375 23.4375 -2.734375 C 28.125 -2.734375 31.75 -4.367188 34.3125 -7.640625 C 36.882812 -10.910156 38.171875 -15.460938 38.171875 -21.296875 C 38.171875 -27.148438 36.875 -31.691406 34.28125 -34.921875 C 31.6875 -38.148438 28.046875 -39.765625 23.359375 -39.765625 C 18.671875 -39.765625 15.054688 -38.15625 12.515625 -34.9375 C 9.984375 -31.726562 8.71875 -27.179688 8.71875 -21.296875 Z M 8.71875 -21.296875 "/></g></g></g><g fill="#faf8f0" fill-opacity="1"><g transform="translate(314.469495, 224.606529)"><g><path d="M 22.65625 -43.28125 C 25.726562 -43.28125 28.382812 -42.71875 30.625 -41.59375 C 32.863281 -40.476562 34.867188 -38.566406 36.640625 -35.859375 L 36.875 -35.859375 C 36.71875 -39.140625 36.640625 -42.359375 36.640625 -45.515625 L 36.640625 -60.78125 L 40.46875 -60.78125 L 40.46875 0 L 37.9375 0 L 36.953125 -6.484375 L 36.640625 -6.484375 C 33.410156 -1.640625 28.773438 0.78125 22.734375 0.78125 C 16.878906 0.78125 12.398438 -1.039062 9.296875 -4.6875 C 6.203125 -8.332031 4.65625 -13.644531 4.65625 -20.625 C 4.65625 -27.96875 6.191406 -33.578125 9.265625 -37.453125 C 12.335938 -41.335938 16.800781 -43.28125 22.65625 -43.28125 Z M 22.65625 -39.765625 C 18.019531 -39.765625 14.535156 -38.132812 12.203125 -34.875 C 9.878906 -31.625 8.71875 -26.898438 8.71875 -20.703125 C 8.71875 -8.671875 13.390625 -2.65625 22.734375 -2.65625 C 27.523438 -2.65625 31.039062 -4.046875 33.28125 -6.828125 C 35.519531 -9.617188 36.640625 -14.21875 36.640625 -20.625 L 36.640625 -21.296875 C 36.640625 -27.859375 35.539062 -32.578125 33.34375 -35.453125 C 31.144531 -38.328125 27.582031 -39.765625 22.65625 -39.765625 Z M 22.65625 -39.765625 "/></g></g></g></svg>